<?xml version="1.0" encoding="UTF-8" standalone="no"?>
<!DOCTYPE svg PUBLIC "-//W3C//DTD SVG 1.1//EN" "http://www.w3.org/Graphics/SVG/1.1/DTD/svg11.dtd">
<svg width="100%" height="100%" viewBox="0 0 2800 2800" version="1.1" xmlns="http://www.w3.org/2000/svg" xmlns:xlink="http://www.w3.org/1999/xlink" xml:space="preserve" xmlns:serif="http://www.serif.com/" style="fill-rule:evenodd;clip-rule:evenodd;stroke-linecap:round;stroke-linejoin:round;stroke-miterlimit:1.5;">
    <rect id="Artboard1" x="0" y="0" width="2800" height="2800" style="fill:none;"/>
    <g id="Artboard11" serif:id="Artboard1">
        <g transform="matrix(1.55106,0,0,1.55106,-670.888,-20386.7)">
            <circle cx="1330.03" cy="14051.4" r="875.488" style="fill:rgb(26,70,142);stroke:black;stroke-width:33.7px;"/>
        </g>
        <g transform="matrix(1,0,0,1,-99.7789,-12803.1)">
            <g transform="matrix(0.507146,-0.86186,0.86186,0.507146,-11578.9,7253.7)">
                <text x="564.117px" y="13744.5px" style="font-family:'meatloafsolid', 'meatloaf solid';font-size:412.5px;fill:white;">T</text>
            </g>
            <g transform="matrix(0.647438,-0.762118,0.762118,0.647438,-10147.2,5282.72)">
                <text x="650.018px" y="13602.3px" style="font-family:'meatloafsolid', 'meatloaf solid';font-size:412.5px;fill:white;">H</text>
            </g>
            <g transform="matrix(0.770264,-0.637725,0.637725,0.770264,-8411.79,3578.02)">
                <text x="778.077px" y="13457.7px" style="font-family:'meatloafsolid', 'meatloaf solid';font-size:412.5px;fill:white;">E</text>
            </g>
            <g transform="matrix(0.91759,-0.397527,0.397527,0.91759,-5208.73,1480.56)">
                <text x="997.599px" y="13296.8px" style="font-family:'meatloafsolid', 'meatloaf solid';font-size:412.5px;fill:white;">O</text>
            </g>
            <g transform="matrix(0.977397,-0.211412,0.211412,0.977397,-2769.8,538.594)">
                <text x="1194.03px" y="13216.2px" style="font-family:'meatloafsolid', 'meatloaf solid';font-size:412.5px;fill:white;">N</text>
            </g>
            <g transform="matrix(0.999151,-0.0412013,0.0412013,0.999151,-542.367,55.375)">
                <text x="1384.15px" y="13179.5px" style="font-family:'meatloafsolid', 'meatloaf solid';font-size:412.5px;fill:white;">L</text>
            </g>
            <g transform="matrix(0.996738,0.0807014,-0.0807014,0.996738,1069.01,-90.7586)">
                <text x="1498.25px" y="13173px" style="font-family:'meatloafsolid', 'meatloaf solid';font-size:412.5px;fill:white;">Y</text>
            </g>
            <g transform="matrix(0.935725,0.352731,-0.352731,0.935725,4780.97,207.142)">
                <text x="1786.83px" y="13215.7px" style="font-family:'meatloafsolid', 'meatloaf solid';font-size:412.5px;fill:white;">P</text>
            </g>
            <g transform="matrix(0.866042,0.499972,-0.499972,0.866042,6908.8,791.355)">
                <text x="1953.63px" y="13282.1px" style="font-family:'meatloafsolid', 'meatloaf solid';font-size:412.5px;fill:white;">L</text>
            </g>
            <g transform="matrix(0.773111,0.634271,-0.634271,0.773111,8955.26,1697.76)">
                <text x="2086.61px" y="13359.7px" style="font-family:'meatloafsolid', 'meatloaf solid';font-size:412.5px;fill:white;">A</text>
            </g>
            <g transform="matrix(0.657042,0.753854,-0.753854,0.657042,10944.6,2932.05)">
                <text x="2235.72px" y="13488.3px" style="font-family:'meatloafsolid', 'meatloaf solid';font-size:412.5px;fill:white;">I</text>
            </g>
            <g transform="matrix(0.53225,0.846587,-0.846587,0.53225,12612,4380.89)">
                <text x="2329.86px" y="13597.4px" style="font-family:'meatloafsolid', 'meatloaf solid';font-size:412.5px;fill:white;">C</text>
            </g>
            <g transform="matrix(0.377759,0.925904,-0.925904,0.377759,14261,6309.26)">
                <text x="2426.79px" y="13758.5px" style="font-family:'meatloafsolid', 'meatloaf solid';font-size:412.5px;fill:white;">E</text>
            </g>
        </g>
        <g transform="matrix(1,0,0,1,-322.084,-13025.4)">
            <g transform="matrix(0.829371,0.558699,-0.558699,0.829371,8808.64,2082.16)">
                <text x="974.418px" y="15455.9px" style="font-family:'meatloafsolid', 'meatloaf solid';font-size:229.167px;fill:white;">A</text>
            </g>
            <g transform="matrix(0.872578,0.488476,-0.488476,0.872578,7720.73,1445.95)">
                <text x="1064.19px" y="15515.3px" style="font-family:'meatloafsolid', 'meatloaf solid';font-size:229.167px;fill:white;">R</text>
            </g>
            <g transform="matrix(0.90824,0.41845,-0.41845,0.90824,6623.3,934.893)">
                <text x="1150.66px" y="15563px" style="font-family:'meatloafsolid', 'meatloaf solid';font-size:229.167px;fill:white;">R</text>
            </g>
            <g transform="matrix(0.937745,0.347323,-0.347323,0.937745,5500.15,530.249)">
                <text x="1235.06px" y="15601.6px" style="font-family:'meatloafsolid', 'meatloaf solid';font-size:229.167px;fill:white;">A</text>
            </g>
            <g transform="matrix(0.96357,0.267455,-0.267455,0.96357,4234.42,200.411)">
                <text x="1334.34px" y="15637.6px" style="font-family:'meatloafsolid', 'meatloaf solid';font-size:229.167px;fill:white;">N</text>
            </g>
            <g transform="matrix(0.984864,0.17333,-0.17333,0.984864,2739.43,-24.9032)">
                <text x="1438.69px" y="15666.2px" style="font-family:'meatloafsolid', 'meatloaf solid';font-size:229.167px;fill:white;">M</text>
            </g>
            <g transform="matrix(0.997258,0.0739986,-0.0739986,0.997258,1166.14,-85.9788)">
                <text x="1569.88px" y="15688px" style="font-family:'meatloafsolid', 'meatloaf solid';font-size:229.167px;fill:white;">O</text>
            </g>
            <g transform="matrix(0.99992,-0.0126842,0.0126842,0.99992,-199.113,9.83316)">
                <text x="1689.15px" y="15695.6px" style="font-family:'meatloafsolid', 'meatloaf solid';font-size:229.167px;fill:white;">R</text>
            </g>
            <g transform="matrix(0.996139,-0.0877919,0.0877919,0.996139,-1372,204.757)">
                <text x="1787.95px" y="15693.6px" style="font-family:'meatloafsolid', 'meatloaf solid';font-size:229.167px;fill:white;">E</text>
            </g>
            <g transform="matrix(0.97934,-0.20222,0.20222,0.97934,-3132.51,703.187)">
                <text x="1938.07px" y="15675.7px" style="font-family:'meatloafsolid', 'meatloaf solid';font-size:229.167px;fill:white;">I</text>
            </g>
            <g transform="matrix(0.961675,-0.27419,0.27419,0.961675,-4219.43,1141.76)">
                <text x="2020.6px" y="15658.3px" style="font-family:'meatloafsolid', 'meatloaf solid';font-size:229.167px;fill:white;">S</text>
            </g>
            <g transform="matrix(0.937879,-0.346962,0.346962,0.937879,-5295.88,1693.45)">
                <text x="2117.14px" y="15629.8px" style="font-family:'meatloafsolid', 'meatloaf solid';font-size:229.167px;fill:white;">L</text>
            </g>
            <g transform="matrix(0.908877,-0.417064,0.417064,0.908877,-6311.21,2326.35)">
                <text x="2197.6px" y="15599.8px" style="font-family:'meatloafsolid', 'meatloaf solid';font-size:229.167px;fill:white;">A</text>
            </g>
            <g transform="matrix(0.870911,-0.491442,0.491442,0.870911,-7354.7,3123.83)">
                <text x="2293.31px" y="15555.1px" style="font-family:'meatloafsolid', 'meatloaf solid';font-size:229.167px;fill:white;">N</text>
            </g>
            <g transform="matrix(0.825579,-0.564286,0.564286,0.825579,-8338.09,4040.06)">
                <text x="2386.96px" y="15501.3px" style="font-family:'meatloafsolid', 'meatloaf solid';font-size:229.167px;fill:white;">D</text>
            </g>
        </g>
        <g transform="matrix(2.10369,0,0,2.10369,2222.86,-530.106)">
            <g transform="matrix(0.473062,0,0,0.473062,-883.358,447.768)">
                <circle cx="1032.5" cy="1016.55" r="948.277" style="fill:rgb(250,248,255);"/>
                <clipPath id="_clip1">
                    <circle cx="1032.5" cy="1016.55" r="948.277"/>
                </clipPath>
                <g clip-path="url(#_clip1)">
                    <g transform="matrix(1.57443,0,0,1.60581,-645.081,-508.697)">
                        <path d="M820.407,1278.28L822.891,1344.96C822.891,1344.96 793.482,1581.48 774.986,1619.86C774.986,1619.86 1052.51,1882.24 1517.99,1471.27C1517.99,1471.27 1462.71,1079.65 1360.63,1030.37C1258.55,981.092 1189.33,985.117 1139.35,985.117C1089.37,985.117 913.879,1031.8 873.971,1048.4C834.063,1064.99 820.407,1278.28 820.407,1278.28Z" style="fill:rgb(248,200,22);"/>
                        <clipPath id="_clip2">
                            <path d="M820.407,1278.28L822.891,1344.96C822.891,1344.96 793.482,1581.48 774.986,1619.86C774.986,1619.86 1052.51,1882.24 1517.99,1471.27C1517.99,1471.27 1462.71,1079.65 1360.63,1030.37C1258.55,981.092 1189.33,985.117 1139.35,985.117C1089.37,985.117 913.879,1031.8 873.971,1048.4C834.063,1064.99 820.407,1278.28 820.407,1278.28Z"/>
                        </clipPath>
                        <g clip-path="url(#_clip2)">
                            <g transform="matrix(1.32103,0,0,1.3164,-259.193,-12933.5)">
                                <path d="M817.771,10849.5C817.771,10849.5 1124.99,10830.5 1155.93,10850.2C1155.93,10850.2 1185.59,10894.7 1214.67,10965.9C1214.67,10965.9 1039.62,11039 1017.55,11049.7L787.606,11021.5C787.606,11021.5 802.356,10977.8 817.771,10849.5Z" style="fill:rgb(222,181,26);"/>
                            </g>
                        </g>
                        <path d="M820.407,1278.28L822.891,1344.96C822.891,1344.96 793.482,1581.48 774.986,1619.86C774.986,1619.86 1052.51,1882.24 1517.99,1471.27C1517.99,1471.27 1462.71,1079.65 1360.63,1030.37C1258.55,981.092 1189.33,985.117 1139.35,985.117C1089.37,985.117 913.879,1031.8 873.971,1048.4C834.063,1064.99 820.407,1278.28 820.407,1278.28Z" style="fill:none;stroke:black;stroke-width:26.33px;"/>
                    </g>
                    <g transform="matrix(1.34723,0,0,1.34723,-366.482,-252.046)">
                        <path d="M1181.47,955.147C1181.47,955.147 1379.84,971.233 1486.33,1039.05C1486.33,1039.05 1598.08,1180.24 1649.14,1426.19C1676.49,1557.9 1598.05,1633.86 1527.65,1634.88C1469.47,1635.72 1402.02,1626.15 1271.92,1529.2C1105.49,1405.17 1102.24,1269.76 1107.72,1233.63C1107.72,1233.63 1228.52,1229.64 1517.25,1430.64" style="fill:rgb(248,200,22);"/>
                        <clipPath id="_clip3">
                            <path d="M1181.47,955.147C1181.47,955.147 1379.84,971.233 1486.33,1039.05C1486.33,1039.05 1598.08,1180.24 1649.14,1426.19C1676.49,1557.9 1598.05,1633.86 1527.65,1634.88C1469.47,1635.72 1402.02,1626.15 1271.92,1529.2C1105.49,1405.17 1102.24,1269.76 1107.72,1233.63C1107.72,1233.63 1228.52,1229.64 1517.25,1430.64"/>
                        </clipPath>
                        <g clip-path="url(#_clip3)">
                            <g transform="matrix(1.56907,0,0,1.56907,34.0836,-16071.2)">
                                <path d="M774.086,10846.1C774.086,10846.1 946.43,10882.9 977.367,10902.7C977.367,10902.7 1048.62,11024.4 1077.7,11095.6C1077.7,11095.6 1062.89,11154.9 1040.82,11165.6L958.334,11117.1C958.334,11117.1 942.317,11022.4 876.549,10940.5C849.595,10907 737.395,10890.8 737.395,10890.8C737.395,10890.8 771.837,10862.9 774.086,10846.1Z" style="fill:rgb(222,181,26);"/>
                            </g>
                            <g transform="matrix(0.861696,0,0,0.861696,-176.572,-10700.4)">
                                <path d="M1513.45,13924.9C1513.45,13924.9 1798.72,14131.9 1966.13,14171.5L1883.76,14334.3C1883.76,14334.3 1537.67,14185.3 1480.37,14083.6L1513.45,13924.9Z" style="fill:rgb(222,181,26);"/>
                            </g>
                        </g>
                        <path d="M1181.47,955.147C1181.47,955.147 1379.84,971.233 1486.33,1039.05C1486.33,1039.05 1598.08,1180.24 1649.14,1426.19C1676.49,1557.9 1598.05,1633.86 1527.65,1634.88C1469.47,1635.72 1402.02,1626.15 1271.92,1529.2C1105.49,1405.17 1102.24,1269.76 1107.72,1233.63C1107.72,1233.63 1228.52,1229.64 1517.25,1430.64" style="fill:none;stroke:black;stroke-width:31.08px;"/>
                    </g>
                    <g transform="matrix(1.42576,0,0,1.42576,-464.859,-305.572)">
                        <path d="M1125.72,973.046C1125.72,973.046 917.577,972.145 852,991.708C852,991.708 756.241,1053.09 738.263,1093.32C738.263,1093.32 665.526,985.509 655.067,936.08C655.067,936.08 549.681,1257.38 600.525,1407.31C651.369,1557.24 852.967,1396.54 877.549,1311.23" style="fill:rgb(222,181,26);stroke:black;stroke-width:22.02px;"/>
                    </g>
                </g>
                <circle cx="1032.5" cy="1016.55" r="948.277" style="fill:none;stroke:black;stroke-width:49.77px;"/>
            </g>
            <g transform="matrix(0.736978,0,0,0.736978,-1175.75,210.022)">
                <path d="M1241.32,895.45C1241.32,895.45 1238.42,995.198 1238.21,1009.29C1238.21,1009.29 1134.82,1104.91 1054.46,1046.35L1038.98,961.178C1038.98,961.178 1178.42,957.098 1241.32,895.45Z" style="fill:rgb(244,204,187);"/>
                <clipPath id="_clip4">
                    <path d="M1241.32,895.45C1241.32,895.45 1238.42,995.198 1238.21,1009.29C1238.21,1009.29 1134.82,1104.91 1054.46,1046.35L1038.98,961.178C1038.98,961.178 1178.42,957.098 1241.32,895.45Z"/>
                </clipPath>
                <g clip-path="url(#_clip4)">
                    <g transform="matrix(1,0,0,1,-85.848,44.7357)">
                        <path d="M1241.32,895.45C1241.32,895.45 1238.42,995.198 1238.21,1009.29C1238.21,1009.29 1134.82,1104.91 1054.46,1046.35L1038.98,961.178C1038.98,961.178 1178.42,957.098 1241.32,895.45Z" style="fill:rgb(246,211,200);"/>
                    </g>
                </g>
                <path d="M1241.32,895.45C1241.32,895.45 1238.42,995.198 1238.21,1009.29C1238.21,1009.29 1134.82,1104.91 1054.46,1046.35L1038.98,961.178C1038.98,961.178 1178.42,957.098 1241.32,895.45Z" style="fill:none;stroke:black;stroke-width:27.66px;"/>
            </g>
            <g transform="matrix(0.736978,0,0,0.736978,-1175.75,236.111)">
                <path d="M930.455,436.234C930.455,436.234 871.063,498.305 876.202,696.808C876.202,696.808 843.166,771.122 870.682,850.493C898.198,929.864 1004.91,969.689 1004.91,969.689C1004.91,969.689 1241.27,987.417 1321.41,797.731C1401.55,608.044 1419.51,446.571 1287.86,378.125C1145.81,304.276 997.276,341.905 930.455,436.234Z" style="fill:rgb(253,204,187);"/>
                <clipPath id="_clip5">
                    <path d="M930.455,436.234C930.455,436.234 871.063,498.305 876.202,696.808C876.202,696.808 843.166,771.122 870.682,850.493C898.198,929.864 1004.91,969.689 1004.91,969.689C1004.91,969.689 1241.27,987.417 1321.41,797.731C1401.55,608.044 1419.51,446.571 1287.86,378.125C1145.81,304.276 997.276,341.905 930.455,436.234Z"/>
                </clipPath>
                <g clip-path="url(#_clip5)">
                    <g transform="matrix(1,0,0,1,-27.5859,-17.1042)">
                        <path d="M930.455,436.234C930.455,436.234 869.606,503.143 865.887,690.225C865.887,690.225 823.361,758.252 850.877,837.623C878.393,916.993 961.591,956.083 1003.38,966.61C1045.18,977.138 1241.27,987.417 1321.41,797.731C1401.55,608.044 1419.51,446.571 1287.86,378.125C1145.81,304.276 997.276,341.905 930.455,436.234Z" style="fill:rgb(246,211,200);"/>
                    </g>
                </g>
                <path d="M930.455,436.234C930.455,436.234 871.063,498.305 876.202,696.808C876.202,696.808 843.166,771.122 870.682,850.493C898.198,929.864 1004.91,969.689 1004.91,969.689C1004.91,969.689 1241.27,987.417 1321.41,797.731C1401.55,608.044 1419.51,446.571 1287.86,378.125C1145.81,304.276 997.276,341.905 930.455,436.234Z" style="fill:none;stroke:black;stroke-width:24.84px;"/>
            </g>
            <g transform="matrix(0.738295,0,0,0.738295,-1174.52,-1787.19)">
                <path d="M955.433,3569.66C955.433,3569.66 1025.94,3589.93 1126.99,3547.55C1126.99,3547.55 1055.93,3737.72 955.433,3569.66Z" style="fill:rgb(250,248,255);"/>
            </g>
            <g transform="matrix(0.738295,0,0,0.738295,-1174.52,-1787.19)">
                <path d="M955.433,3569.66C955.433,3569.66 1052.43,3585.06 1124.18,3549.47C1124.18,3549.47 1057.1,3738.57 955.433,3569.66" style="fill:none;stroke:black;stroke-width:23.93px;"/>
            </g>
            <g transform="matrix(0.738295,0,0,0.738295,-1174.52,235.177)">
                <path d="M978.164,580.416C978.164,580.416 932.01,539.564 881.477,583.279" style="fill:none;stroke:black;stroke-width:20.25px;"/>
            </g>
            <g>
                <g transform="matrix(0.631035,0,0,0.631035,-1074.57,304.257)">
                    <path d="M935.06,620.571C935.06,620.571 966.721,627.737 949.845,657.289C939.128,676.057 916.42,664.58 911.991,657.6C909.266,653.304 906.115,642.091 913.584,632.924" style="stroke:black;stroke-width:17.23px;"/>
                </g>
                <g transform="matrix(0.467308,0,0,0.467308,-801.162,-2047.63)">
                    <circle cx="662.805" cy="5881.51" r="11.345" style="fill:white;"/>
                </g>
            </g>
            <g transform="matrix(0.528965,-0.14762,0.14762,0.528965,-3176.13,-5976.46)">
                <path d="M1693.02,13124.8C1693.02,13124.8 1658.74,13062.9 1608.88,13100.5C1608.88,13100.5 1651.31,13119.9 1664.43,13149.7" style="fill:none;stroke:black;stroke-width:18.75px;"/>
            </g>
            <g transform="matrix(0.738295,0,0,0.738295,-1174.52,-1787.19)">
                <path d="M1192.45,3261.81C1192.45,3261.81 1271.85,3358.28 1276.01,3433.91C1276.01,3433.91 1310.57,3386.16 1331.42,3387.64C1331.42,3387.64 1334.28,3297.91 1192.45,3261.81Z" style="fill:rgb(191,95,58);stroke:black;stroke-width:20.25px;"/>
            </g>
            <g transform="matrix(0.738295,0,0,0.738295,-1174.52,235.177)">
                <path d="M1392.5,678.745C1392.5,678.745 1503.43,511.841 1371.29,392.474C1371.29,392.474 1122.46,192.06 972.751,397.72C972.751,397.72 1332.53,522.812 1310.34,654.76C1310.34,654.76 1387.41,664.659 1392.5,678.745Z" style="fill:rgb(248,200,22);stroke:black;stroke-width:27.61px;"/>
            </g>
            <g transform="matrix(1,0,0,0.939574,-1094.24,-9270.25)">
                <path d="M767.224,10365.9C828.527,10383.5 876.122,10421.9 876.122,10421.9C960.034,10497.7 911.183,10599.4 895.873,10626.4C913.012,10629.4 938.207,10634.9 940.661,10641.7C940.661,10641.7 1022.57,10518.4 925.004,10430.3C925.004,10430.3 850.134,10370 767.224,10365.9Z" style="fill:rgb(222,181,26);"/>
            </g>
            <g transform="matrix(0.738295,0,0,0.738295,-1174.52,235.177)">
                <path d="M978.355,664.058C978.355,664.058 946.604,729.377 927.939,746.744C927.939,746.744 938.603,764.029 950.229,764.607C961.541,765.17 973.697,748.805 982.548,764.314" style="fill:none;stroke:black;stroke-width:20.25px;"/>
            </g>
            <g transform="matrix(0.738295,0,0,0.738295,-1174.52,235.177)">
                <path d="M1065.39,583.562C1065.39,583.562 1137.46,556.661 1176.65,616.649" style="fill:none;stroke:black;stroke-width:20.25px;"/>
            </g>
            <g id="outline" transform="matrix(0.738295,0,0,0.738295,-1174.52,235.177)">
                <path d="M1290.65,586.631C1290.65,586.631 1113.97,386.277 922.703,366.337C922.703,366.337 721.305,346.742 711.977,391.354C711.977,391.354 693.915,436.73 879.059,524.823C879.059,524.823 1030.11,437.558 1290.65,586.631Z" style="fill:none;"/>
                <clipPath id="_clip6">
                    <path d="M1290.65,586.631C1290.65,586.631 1113.97,386.277 922.703,366.337C922.703,366.337 721.305,346.742 711.977,391.354C711.977,391.354 693.915,436.73 879.059,524.823C879.059,524.823 1030.11,437.558 1290.65,586.631Z"/>
                </clipPath>
                <g clip-path="url(#_clip6)">
                    <path id="outline1" serif:id="outline" d="M1290.65,586.631C1290.65,586.631 1113.97,386.277 922.703,366.337C922.703,366.337 721.305,346.742 711.977,391.354C711.977,391.354 678.969,438.267 864.113,526.359C864.113,526.359 1030.11,437.558 1290.65,586.631Z" style="fill:rgb(222,181,26);stroke:black;stroke-width:27.61px;"/>
                    <g id="outline2" serif:id="outline" transform="matrix(1,0,0,1,-61.1704,30.3338)">
                        <path d="M1290.65,586.631C1290.65,586.631 1113.97,386.277 922.703,366.337C922.703,366.337 721.305,346.742 711.977,391.354C711.977,391.354 678.969,438.267 864.113,526.359C864.113,526.359 1030.11,437.558 1290.65,586.631Z" style="fill:rgb(248,200,22);"/>
                    </g>
                </g>
                <path d="M1290.65,586.631C1290.65,586.631 1113.97,386.277 922.703,366.337C922.703,366.337 721.305,346.742 711.977,391.354C711.977,391.354 693.915,436.73 879.059,524.823C879.059,524.823 1030.11,437.558 1290.65,586.631Z" style="fill:none;stroke:black;stroke-width:27.61px;"/>
            </g>
            <g transform="matrix(0.738295,0,0,0.738295,-1174.21,232.775)">
                <path d="M1310.95,662.881C1310.95,662.881 1380.63,629.716 1397.63,701.691C1410.64,756.778 1379.68,814.705 1284.84,812.591" style="fill:none;"/>
                <clipPath id="_clip7">
                    <path d="M1310.95,662.881C1310.95,662.881 1380.63,629.716 1397.63,701.691C1410.64,756.778 1379.68,814.705 1284.84,812.591"/>
                </clipPath>
                <g clip-path="url(#_clip7)">
                    <g transform="matrix(1,0,0,1,-5.04547,1.22032)">
                        <path d="M1310.95,662.881C1310.95,662.881 1380.63,629.716 1397.63,701.691C1410.64,756.778 1379.68,814.705 1284.84,812.591" style="fill:rgb(253,204,187);"/>
                    </g>
                    <g transform="matrix(1,0,0,1,-34.8672,-24.1702)">
                        <path d="M1310.95,662.881C1310.95,662.881 1380.63,629.716 1397.63,701.691C1410.64,756.778 1379.68,814.705 1284.84,812.591" style="fill:rgb(246,211,200);"/>
                    </g>
                </g>
                <path d="M1310.95,662.881C1310.95,662.881 1380.63,629.716 1397.63,701.691C1410.64,756.778 1379.68,814.705 1284.84,812.591" style="fill:none;stroke:black;stroke-width:29.45px;"/>
            </g>
            <g transform="matrix(0.738295,0,0,0.738295,-1170.06,230.548)">
                <path d="M1314.87,711.075C1314.97,709.102 1337.24,704.919 1342.67,724.559C1347.2,740.927 1335.65,759.479 1315.76,762.432" style="fill:none;stroke:black;stroke-width:20.25px;"/>
            </g>
            <g transform="matrix(0.520334,0,0,0.517009,-2156.41,-1021.52)">
                <path d="M3480.82,3542.76C3480.82,3542.76 3474.53,3596.29 3528.36,3618.18" style="fill:none;stroke:black;stroke-width:26.2px;"/>
            </g>
            <g transform="matrix(0.652363,0,0,0.652363,-1081.58,-1483.13)">
                <path d="M1109.54,3930.84C1109.54,3930.84 1101.98,3856.2 965.423,3793.47C828.862,3730.73 776.765,3745.23 737.369,3728.84C737.369,3728.84 794.051,3831.82 1109.54,3930.84Z" style="fill:rgb(191,122,66);stroke:black;stroke-width:22.22px;"/>
            </g>
            <g transform="matrix(0.652363,0,0,0.652363,-1081.58,-1483.13)">
                <path d="M940.724,4186.21C940.724,4186.21 892.073,4247.33 758.481,4186.48C568.797,4100.09 615.243,3864.74 620.877,3748.52C620.877,3748.52 640.522,4047.03 940.724,4186.21Z" style="fill:rgb(191,122,66);stroke:black;stroke-width:22.22px;"/>
            </g>
            <g transform="matrix(0.397517,-0.428248,0.428248,0.397517,-1229.89,1094.32)">
                <path d="M1094.04,1153.69C1094.04,1153.69 1076.58,1131.11 1045.94,1141.33C1045.94,1141.33 987.901,1189.15 1008.87,1242.41C1008.87,1242.41 1022.68,1262.45 1050.09,1243.47C1050.09,1243.47 1096.23,1208.9 1094.04,1153.69Z" style="fill:rgb(246,211,200);stroke:black;stroke-width:17.83px;"/>
            </g>
            <g transform="matrix(0.652363,0,0,0.652363,-1081.58,-1483.13)">
                <path d="M593.928,3550.54C593.928,3550.54 585.337,3454.36 699.295,3431.43C699.295,3431.43 741.909,3509.22 663.888,3596.17C663.888,3596.17 675.133,3699.22 807.771,3772.85C940.409,3846.48 1104.64,3883.76 1216.15,4046.93C1216.15,4046.93 1266.93,4145.72 1254.73,4202.39C1254.73,4202.39 1058.28,4309.18 799.768,4122.7C799.768,4122.7 627.423,4020.42 604.015,3641.53C604.015,3641.53 511.629,3667.93 451.656,3554.47C451.656,3554.47 476.432,3490.73 593.928,3550.54Z" style="fill:rgb(191,95,58);"/>
                <clipPath id="_clip8">
                    <path d="M593.928,3550.54C593.928,3550.54 585.337,3454.36 699.295,3431.43C699.295,3431.43 741.909,3509.22 663.888,3596.17C663.888,3596.17 675.133,3699.22 807.771,3772.85C940.409,3846.48 1104.64,3883.76 1216.15,4046.93C1216.15,4046.93 1266.93,4145.72 1254.73,4202.39C1254.73,4202.39 1058.28,4309.18 799.768,4122.7C799.768,4122.7 627.423,4020.42 604.015,3641.53C604.015,3641.53 511.629,3667.93 451.656,3554.47C451.656,3554.47 476.432,3490.73 593.928,3550.54Z"/>
                </clipPath>
                <g clip-path="url(#_clip8)">
                    <path d="M1040.51,3971.87C1040.51,3971.87 989.906,3998.99 973.253,4063.21" style="fill:none;stroke:black;stroke-width:15.18px;"/>
                    <g transform="matrix(0.772658,0,0,0.772658,187.032,872.516)">
                        <path d="M1040.51,3971.87C1040.51,3971.87 989.906,3998.99 973.253,4063.21" style="fill:none;stroke:black;stroke-width:19.65px;"/>
                    </g>
                    <g transform="matrix(1,0,0,1,43.1553,-68.6772)">
                        <path d="M593.928,3550.54C593.928,3550.54 585.337,3454.36 699.295,3431.43C699.295,3431.43 741.909,3509.22 663.888,3596.17C663.888,3596.17 675.133,3699.22 807.771,3772.85C940.409,3846.48 1104.64,3883.76 1216.15,4046.93C1216.15,4046.93 1266.93,4145.72 1254.73,4202.39C1254.73,4202.39 1058.28,4309.18 799.768,4122.7C799.768,4122.7 627.423,4020.42 604.015,3641.53C604.015,3641.53 511.629,3667.93 451.656,3554.47C451.656,3554.47 476.432,3490.73 593.928,3550.54Z" style="fill:rgb(191,114,66);"/>
                        <clipPath id="_clip9">
                            <path d="M593.928,3550.54C593.928,3550.54 585.337,3454.36 699.295,3431.43C699.295,3431.43 741.909,3509.22 663.888,3596.17C663.888,3596.17 675.133,3699.22 807.771,3772.85C940.409,3846.48 1104.64,3883.76 1216.15,4046.93C1216.15,4046.93 1266.93,4145.72 1254.73,4202.39C1254.73,4202.39 1058.28,4309.18 799.768,4122.7C799.768,4122.7 627.423,4020.42 604.015,3641.53C604.015,3641.53 511.629,3667.93 451.656,3554.47C451.656,3554.47 476.432,3490.73 593.928,3550.54Z"/>
                        </clipPath>
                        <g clip-path="url(#_clip9)">
                            <g transform="matrix(1,0,0,1,-38.7871,43.5202)">
                                <path d="M1040.51,3971.87C1040.51,3971.87 989.906,3998.99 973.253,4063.21" style="fill:none;stroke:black;stroke-width:7.59px;"/>
                            </g>
                            <g transform="matrix(0.772658,0,0,0.772658,143.582,928.639)">
                                <path d="M1040.51,3971.87C1040.51,3971.87 989.906,3998.99 973.253,4063.21" style="fill:none;stroke:black;stroke-width:9.82px;"/>
                            </g>
                        </g>
                    </g>
                </g>
                <path d="M593.928,3550.54C593.928,3550.54 585.337,3454.36 699.295,3431.43C699.295,3431.43 741.909,3509.22 663.888,3596.17C663.888,3596.17 675.133,3699.22 807.771,3772.85C940.409,3846.48 1104.64,3883.76 1216.15,4046.93C1216.15,4046.93 1266.93,4145.72 1254.73,4202.39C1254.73,4202.39 1058.28,4309.18 799.768,4122.7C799.768,4122.7 627.423,4020.42 604.015,3641.53C604.015,3641.53 511.629,3667.93 451.656,3554.47C451.656,3554.47 476.432,3490.73 593.928,3550.54Z" style="fill:none;stroke:black;stroke-width:23.81px;"/>
            </g>
            <g transform="matrix(0.650594,0.0480119,-0.0480119,0.650594,-1029.03,247.835)">
                <path d="M1094.04,1153.69C1094.04,1153.69 1076.58,1131.11 1045.94,1141.33C1045.94,1141.33 987.901,1189.15 1008.87,1242.41C1008.87,1242.41 1022.68,1262.45 1050.09,1243.47C1050.09,1243.47 1096.23,1208.9 1094.04,1153.69Z" style="fill:rgb(244,204,187);"/>
                <clipPath id="_clip10">
                    <path d="M1094.04,1153.69C1094.04,1153.69 1076.58,1131.11 1045.94,1141.33C1045.94,1141.33 987.901,1189.15 1008.87,1242.41C1008.87,1242.41 1022.68,1262.45 1050.09,1243.47C1050.09,1243.47 1096.23,1208.9 1094.04,1153.69Z"/>
                </clipPath>
                <g clip-path="url(#_clip10)">
                    <g transform="matrix(1,0,0,1,23.1696,8.78036)">
                        <path d="M1094.04,1153.69C1094.04,1153.69 1076.58,1131.11 1045.94,1141.33C1045.94,1141.33 987.901,1189.15 1008.87,1242.41C1008.87,1242.41 1022.68,1262.45 1050.09,1243.47C1050.09,1243.47 1096.23,1208.9 1094.04,1153.69Z" style="fill:rgb(244,204,187);"/>
                    </g>
                </g>
                <path d="M1094.04,1153.69C1094.04,1153.69 1076.58,1131.11 1045.94,1141.33C1045.94,1141.33 987.901,1189.15 1008.87,1242.41C1008.87,1242.41 1022.68,1262.45 1050.09,1243.47C1050.09,1243.47 1096.23,1208.9 1094.04,1153.69Z" style="fill:none;stroke:black;stroke-width:19.16px;"/>
            </g>
            <g transform="matrix(0.602798,0,0,0.517135,-1034.68,443.87)">
                <path d="M627.5,945.887C627.5,945.887 581.995,963.979 575.661,1009.88C575.661,1009.88 579.877,1050.14 610.021,1031.74C640.164,1013.34 683.534,954.588 627.5,945.887Z" style="fill:rgb(253,204,187);"/>
                <clipPath id="_clip11">
                    <path d="M627.5,945.887C627.5,945.887 581.995,963.979 575.661,1009.88C575.661,1009.88 579.877,1050.14 610.021,1031.74C640.164,1013.34 683.534,954.588 627.5,945.887Z"/>
                </clipPath>
                <g clip-path="url(#_clip11)">
                    <g transform="matrix(1,0,0,1,-8.68414,-14.3384)">
                        <path d="M627.5,945.887C627.5,945.887 581.995,963.979 575.661,1009.88C575.661,1009.88 579.877,1050.14 610.021,1031.74C640.164,1013.34 683.534,954.588 627.5,945.887Z" style="fill:rgb(246,211,200);"/>
                    </g>
                </g>
                <path d="M627.5,945.887C627.5,945.887 581.995,963.979 575.661,1009.88C575.661,1009.88 579.877,1050.14 610.021,1031.74C640.164,1013.34 683.534,954.588 627.5,945.887Z" style="fill:none;stroke:black;stroke-width:18.55px;"/>
            </g>
            <g transform="matrix(0.707123,0,0,0.582141,-1113.63,362.21)">
                <path d="M627.5,945.887C627.5,945.887 581.995,963.979 575.661,1009.88C575.661,1009.88 579.877,1050.14 610.021,1031.74C640.164,1013.34 683.534,954.588 627.5,945.887Z" style="fill:rgb(253,204,187);"/>
                <clipPath id="_clip12">
                    <path d="M627.5,945.887C627.5,945.887 581.995,963.979 575.661,1009.88C575.661,1009.88 579.877,1050.14 610.021,1031.74C640.164,1013.34 683.534,954.588 627.5,945.887Z"/>
                </clipPath>
                <g clip-path="url(#_clip12)">
                    <g transform="matrix(1,0,0,1,-12.7432,-14.1303)">
                        <path d="M627.5,945.887C627.5,945.887 581.995,963.979 575.661,1009.88C575.661,1009.88 579.877,1050.14 610.021,1031.74C640.164,1013.34 683.534,954.588 627.5,945.887Z" style="fill:rgb(246,211,200);"/>
                    </g>
                </g>
                <path d="M627.5,945.887C627.5,945.887 581.995,963.979 575.661,1009.88C575.661,1009.88 579.877,1050.14 610.021,1031.74C640.164,1013.34 683.534,954.588 627.5,945.887Z" style="fill:none;stroke:black;stroke-width:16.08px;"/>
            </g>
            <g transform="matrix(0.69827,0,0,0.617418,-1122.45,306.291)">
                <path d="M627.5,945.887C627.5,945.887 583.066,957.7 576.732,1003.6C576.732,1003.6 576.023,1047.33 606.167,1028.93C636.311,1010.53 683.534,954.588 627.5,945.887Z" style="fill:rgb(253,204,187);"/>
                <clipPath id="_clip13">
                    <path d="M627.5,945.887C627.5,945.887 583.066,957.7 576.732,1003.6C576.732,1003.6 576.023,1047.33 606.167,1028.93C636.311,1010.53 683.534,954.588 627.5,945.887Z"/>
                </clipPath>
                <g clip-path="url(#_clip13)">
                    <g transform="matrix(0.975753,0.247537,-0.193531,0.975753,198.442,-145.687)">
                        <path d="M627.5,945.887C627.5,945.887 583.066,957.7 576.732,1003.6C576.732,1003.6 576.023,1047.33 606.167,1028.93C636.311,1010.53 683.534,954.588 627.5,945.887Z" style="fill:rgb(246,211,200);"/>
                    </g>
                </g>
                <path d="M627.5,945.887C627.5,945.887 583.066,957.7 576.732,1003.6C576.732,1003.6 576.023,1047.33 606.167,1028.93C636.311,1010.53 683.534,954.588 627.5,945.887Z" style="fill:none;stroke:black;stroke-width:15.8px;"/>
            </g>
            <g transform="matrix(0.641633,0.123117,-0.0947186,0.577053,-1001.12,247.42)">
                <path d="M627.5,945.887C627.5,945.887 578.729,960.427 572.395,1006.32C572.395,1006.32 562.66,1037.67 598.413,1028.84C632.234,1020.48 683.534,954.588 627.5,945.887Z" style="fill:rgb(246,211,200);stroke:black;stroke-width:16.58px;"/>
            </g>
            <g transform="matrix(0.652363,0,0,0.652363,-1081.58,303.85)">
                <path d="M703.862,805.828C703.862,805.828 681.048,774.472 635.014,793.505C635.014,793.505 584.989,806.363 615.097,840.616C615.097,840.616 630.723,864.564 666.748,839.612L652.649,847.481C652.649,847.481 667.222,915.114 687.828,934.259C687.828,934.259 742.923,886.963 703.862,805.828Z" style="fill:rgb(246,211,200);stroke:black;stroke-width:15.97px;"/>
            </g>
            <g transform="matrix(0.650594,0.0480119,-0.0480119,0.650594,-1001.93,256.107)">
                <path d="M1094.04,1153.69C1094.04,1153.69 1076.58,1131.11 1045.94,1141.33C1045.94,1141.33 987.901,1189.15 1008.87,1242.41C1008.87,1242.41 1022.68,1262.45 1050.09,1243.47C1050.09,1243.47 1096.23,1208.9 1094.04,1153.69Z" style="fill:rgb(246,211,200);"/>
                <clipPath id="_clip14">
                    <path d="M1094.04,1153.69C1094.04,1153.69 1076.58,1131.11 1045.94,1141.33C1045.94,1141.33 987.901,1189.15 1008.87,1242.41C1008.87,1242.41 1022.68,1262.45 1050.09,1243.47C1050.09,1243.47 1096.23,1208.9 1094.04,1153.69Z"/>
                </clipPath>
                <g clip-path="url(#_clip14)">
                    <g transform="matrix(1,0,0,1,19.4751,7.29278)">
                        <path d="M1094.04,1153.69C1094.04,1153.69 1076.58,1131.11 1045.94,1141.33C1045.94,1141.33 987.901,1189.15 1008.87,1242.41C1008.87,1242.41 1022.68,1262.45 1050.09,1243.47C1050.09,1243.47 1096.23,1208.9 1094.04,1153.69Z" style="fill:rgb(244,204,187);"/>
                    </g>
                </g>
                <path d="M1094.04,1153.69C1094.04,1153.69 1076.58,1131.11 1045.94,1141.33C1045.94,1141.33 987.901,1189.15 1008.87,1242.41C1008.87,1242.41 1022.68,1262.45 1050.09,1243.47C1050.09,1243.47 1096.23,1208.9 1094.04,1153.69Z" style="fill:none;stroke:black;stroke-width:19.16px;"/>
            </g>
            <g transform="matrix(0.650594,0.0480119,-0.0480119,0.650594,-976.838,267.627)">
                <path d="M1094.04,1153.69C1094.04,1153.69 1076.58,1131.11 1045.94,1141.33C1045.94,1141.33 987.901,1189.15 1008.87,1242.41C1008.87,1242.41 1022.68,1262.45 1050.09,1243.47C1050.09,1243.47 1096.23,1208.9 1094.04,1153.69Z" style="fill:rgb(246,211,200);"/>
                <clipPath id="_clip15">
                    <path d="M1094.04,1153.69C1094.04,1153.69 1076.58,1131.11 1045.94,1141.33C1045.94,1141.33 987.901,1189.15 1008.87,1242.41C1008.87,1242.41 1022.68,1262.45 1050.09,1243.47C1050.09,1243.47 1096.23,1208.9 1094.04,1153.69Z"/>
                </clipPath>
                <g clip-path="url(#_clip15)">
                    <g transform="matrix(1,0,0,1,20.1372,9.80376)">
                        <path d="M1094.04,1153.69C1094.04,1153.69 1076.58,1131.11 1045.94,1141.33C1045.94,1141.33 987.901,1189.15 1008.87,1242.41C1008.87,1242.41 1022.68,1262.45 1050.09,1243.47C1050.09,1243.47 1096.23,1208.9 1094.04,1153.69Z" style="fill:rgb(244,204,187);"/>
                    </g>
                </g>
                <path d="M1094.04,1153.69C1094.04,1153.69 1076.58,1131.11 1045.94,1141.33C1045.94,1141.33 987.901,1189.15 1008.87,1242.41C1008.87,1242.41 1022.68,1262.45 1050.09,1243.47C1050.09,1243.47 1096.23,1208.9 1094.04,1153.69Z" style="fill:none;stroke:black;stroke-width:19.16px;"/>
            </g>
            <g transform="matrix(0.584309,0,0,0.584309,-942.353,407.937)">
                <path d="M1098.6,1159.77C1098.6,1159.77 1079.8,1127.82 1045.94,1141.33C1045.94,1141.33 987.901,1189.15 1008.87,1242.41C1008.87,1242.41 1022.68,1262.45 1050.09,1243.47L1079.29,1202.08" style="fill:rgb(246,211,200);stroke:black;stroke-width:21.39px;"/>
            </g>
            <g transform="matrix(0.652363,0,0,0.652363,-1081.58,-1483.13)">
                <circle cx="1050.04" cy="4126.77" r="24.143" style="fill:rgb(191,138,66);stroke:black;stroke-width:14.58px;"/>
            </g>
            <g transform="matrix(1,0,0,1,-1087.11,-9905.38)">
                <path d="M755.292,10718.9C755.292,10718.9 755.019,10737 771.414,10741.1" style="fill:none;stroke:rgb(229,204,187);stroke-width:12.5px;"/>
            </g>
        </g>
    </g>
</svg>
